<?xml version="1.0" standalone="no"?>
<!DOCTYPE svg PUBLIC "-//W3C//DTD SVG 20010904//EN"
 "http://www.w3.org/TR/2001/REC-SVG-20010904/DTD/svg10.dtd">
<svg version="1.0" xmlns="http://www.w3.org/2000/svg"
 width="1280.000000pt" height="1140.000000pt" viewBox="0 0 1280.000000 1140.000000"
 preserveAspectRatio="xMidYMid meet">
<metadata>
Created by potrace 1.15, written by Peter Selinger 2001-2017
</metadata>
<g transform="translate(0.000000,1140.000000) scale(0.100000,-0.100000)"
fill="#ffffff" stroke="none">
<path d="M4765 11254 c-38 -2 -135 -8 -215 -14 -1347 -100 -2511 -665 -3053
-1483 -228 -344 -327 -717 -298 -1121 25 -345 94 -607 216 -821 l45 -79 -6
-1386 c-6 -1192 -5 -1383 7 -1374 17 14 1416 1147 1749 1417 182 148 249 197
265 194 330 -75 502 -106 717 -130 l117 -14 83 -78 c510 -481 1249 -778 2140
-860 189 -17 662 -20 843 -5 403 34 793 112 1154 229 85 27 160 47 165 43 6
-3 440 -291 964 -638 523 -348 952 -628 952 -622 0 6 -23 239 -50 517 -28 278
-77 781 -110 1116 -33 336 -65 660 -71 720 -11 104 -10 113 9 150 131 259 176
743 101 1092 -146 677 -784 1251 -1711 1537 -79 24 -195 56 -258 70 -63 15
-123 29 -132 32 -9 3 -28 25 -42 49 -90 153 -315 406 -497 560 -570 479 -1412
792 -2368 880 -157 14 -585 26 -716 19z"/>
<path d="M1675 4809 c-362 -45 -697 -292 -851 -625 -304 -656 104 -1423 819
-1539 728 -118 1364 514 1252 1245 -90 586 -630 992 -1220 919z"/>
<path d="M11101 4459 c-261 -32 -517 -168 -683 -362 -179 -211 -271 -480 -255
-747 10 -167 44 -287 121 -437 135 -261 376 -453 674 -536 66 -18 104 -21 267
-21 179 0 195 1 280 27 379 116 647 393 746 773 20 75 24 113 24 249 0 136 -4
174 -24 250 -31 118 -86 244 -146 336 -60 90 -198 231 -280 286 -215 144 -485
212 -724 182z"/>
<path d="M1925 2300 c-269 -10 -608 -21 -753 -26 -252 -7 -264 -8 -277 -28 -8
-12 -96 -168 -197 -348 l-184 -326 -42 -234 c-103 -569 -182 -1012 -182 -1020
0 -6 103 -7 257 -4 142 4 926 11 1743 17 817 6 1487 13 1488 14 2 2 -13 54
-33 117 -59 183 -290 892 -378 1162 l-82 250 -299 223 -300 223 -136 -1 c-74
-1 -355 -10 -625 -19z"/>
<path d="M10428 2006 c-86 -88 -184 -191 -218 -228 l-61 -67 -178 -758 c-99
-417 -178 -759 -177 -759 0 -1 449 -7 996 -13 547 -6 1120 -14 1273 -17 268
-6 277 -5 277 13 0 11 -36 294 -79 630 l-80 612 -137 338 c-76 186 -141 342
-146 348 -8 10 -1071 64 -1228 63 l-85 -1 -157 -161z"/>
</g>
</svg>
